M48
; DRILL file {KiCad 5.1.6} date Sat Jul 11 21:42:13 2020
; FORMAT={-:-/ absolute / metric / decimal}
; #@! TF.CreationDate,2020-07-11T21:42:13+02:00
; #@! TF.GenerationSoftware,Kicad,Pcbnew,5.1.6
; #@! TF.FileFunction,Plated,1,2,PTH
FMAT,2
METRIC
T1C0.300
T2C1.000
%
G90
G05
T1
X46.134Y-139.178
X46.134Y-171.178
X46.134Y-143.178
X46.134Y-175.178
X46.134Y-135.178
X46.134Y-141.178
X46.134Y-145.178
X46.134Y-167.178
X46.134Y-173.178
X46.134Y-177.178
X46.134Y-137.178
X46.134Y-169.178
X48.134Y-135.178
X48.134Y-146.178
X48.134Y-166.178
X50.134Y-146.178
X50.134Y-135.178
X50.134Y-166.178
X50.134Y-166.178
X51.134Y-148.178
X51.134Y-152.178
X51.134Y-156.178
X51.134Y-160.178
X51.134Y-162.178
X51.134Y-150.178
X51.134Y-154.178
X51.134Y-158.178
X51.134Y-164.178
X53.134Y-183.178
X55.134Y-183.178
X57.134Y-183.178
X57.704Y-138.968
X59.134Y-183.178
X61.134Y-183.178
X62.134Y-134.178
X62.606Y-146.633
X63.134Y-183.178
X65.134Y-183.178
X65.959Y-146.608
X66.67Y-138.226
X67.134Y-183.178
X67.384Y-131.428
X67.559Y-159.155
X68.194Y-153.313
X69.134Y-183.178
X69.464Y-142.442
X69.591Y-162.33
X69.972Y-158.901
X71.089Y-154.736
X71.134Y-183.178
X71.801Y-152.755
X71.902Y-159.232
X71.928Y-149.165
X72.448Y-155.129
X73.134Y-183.178
X73.172Y-158.952
X74.366Y-152.729
X74.442Y-159.105
X75.134Y-183.178
X75.204Y-157.2
X75.458Y-156.438
X75.585Y-149.351
X77.134Y-131.428
X77.134Y-183.178
X79.134Y-183.178
X81.134Y-183.178
X83.134Y-183.178
X84.134Y-134.178
X85.134Y-183.178
X85.491Y-162.508
X87.134Y-183.178
X89.134Y-183.178
X89.884Y-131.428
X90.444Y-157.962
X91.134Y-183.178
X92.222Y-157.2
X92.629Y-159.206
X92.634Y-131.178
X93.134Y-183.178
X94.0Y-158.978
X95.134Y-183.178
X95.169Y-152.831
X96.286Y-156.438
X96.312Y-152.831
X96.413Y-167.487
X97.134Y-183.178
X97.721Y-156.602
X98.444Y-136.558
X99.134Y-183.178
X100.124Y-136.278
X100.847Y-139.02
X101.134Y-183.178
X101.494Y-140.658
X102.634Y-131.678
X103.134Y-134.178
X103.134Y-183.178
X109.134Y-137.178
X109.134Y-155.178
X109.134Y-169.178
X109.134Y-135.178
X109.134Y-141.178
X109.134Y-143.178
X109.134Y-145.178
X109.134Y-147.178
X109.134Y-149.178
X109.134Y-151.178
X109.134Y-153.178
X109.134Y-157.178
X109.134Y-159.178
X109.134Y-161.178
X109.134Y-165.178
X109.134Y-167.178
X109.134Y-171.178
X109.134Y-173.178
X109.134Y-175.178
X109.134Y-177.178
X109.134Y-163.178
T2
X54.234Y-171.048
X54.234Y-173.588
X56.774Y-171.048
X56.774Y-173.588
X59.314Y-171.048
X59.314Y-173.588
X61.854Y-171.048
X61.854Y-173.588
X64.394Y-171.048
X64.394Y-173.588
X66.934Y-171.048
X66.934Y-173.588
X69.474Y-171.048
X69.474Y-173.588
X72.014Y-171.048
X72.014Y-173.588
X74.554Y-171.048
X74.554Y-173.588
X77.094Y-171.048
X77.094Y-173.588
X79.634Y-171.048
X79.634Y-173.588
X82.174Y-171.048
X82.174Y-173.588
X84.714Y-171.048
X84.714Y-173.588
X87.254Y-171.048
X87.254Y-173.588
X89.794Y-171.048
X89.794Y-173.588
X92.334Y-171.048
X92.334Y-173.588
X94.874Y-171.048
X94.874Y-173.588
X97.414Y-171.048
X97.414Y-173.588
X99.954Y-171.048
X99.954Y-173.588
X102.494Y-171.048
X102.494Y-173.588
X53.246Y-130.43
X53.246Y-132.97
X55.786Y-130.43
X55.786Y-132.97
X58.326Y-130.43
X58.326Y-132.97
X60.866Y-130.43
X60.866Y-132.97
X63.406Y-130.43
X63.406Y-132.97
X65.946Y-130.43
X65.946Y-132.97
X68.486Y-130.43
X68.486Y-132.97
X71.026Y-130.43
X71.026Y-132.97
X73.566Y-130.43
X73.566Y-132.97
X76.106Y-130.43
X76.106Y-132.97
X78.646Y-130.43
X78.646Y-132.97
X81.186Y-130.43
X81.186Y-132.97
X83.726Y-130.43
X83.726Y-132.97
X86.266Y-130.43
X86.266Y-132.97
X88.806Y-130.43
X88.806Y-132.97
X91.346Y-130.43
X91.346Y-132.97
X93.886Y-130.43
X93.886Y-132.97
X96.426Y-130.43
X96.426Y-132.97
X98.966Y-130.43
X98.966Y-132.97
X101.506Y-130.43
X101.506Y-132.97
T0
M30
