%FSLAX45Y45*%
G04 Gerber Fmt 4.5, Leading zero omitted, Abs format (unit mm)*
G04 Created by KiCad (PCBNEW 5.1.6) date 2020-07-11 21:06:06*
%MOMM*%
%LPD*%
G01*
G04 APERTURE LIST*
%TA.AperFunction,Profile*%
%ADD10C,0.100000*%
%TD*%
%ADD11C,0.200000*%
%ADD12C,0.300000*%
G04 APERTURE END LIST*
D10*
X4789263Y-12815588D02*
X10689263Y-12815588D01*
X4789263Y-12815587D02*
G75*
G03*
X4489263Y-13115588I0J-300000D01*
G01*
X10989263Y-13115588D02*
X10989263Y-18115588D01*
X4789263Y-18415588D02*
X10689263Y-18415588D01*
X4989263Y-14865588D02*
X4989263Y-16365588D01*
X4589263Y-14765588D02*
X4889263Y-14765588D01*
X4589263Y-16465588D02*
X4889263Y-16465588D01*
X4489263Y-13115588D02*
X4489263Y-14665588D01*
X4489263Y-16565588D02*
X4489263Y-18115588D01*
X4489263Y-18115587D02*
G75*
G03*
X4789263Y-18415588I300000J0D01*
G01*
X10689263Y-18415587D02*
G75*
G03*
X10989263Y-18115588I0J300000D01*
G01*
X4489263Y-14665588D02*
G75*
G03*
X4589263Y-14765588I100000J0D01*
G01*
X4989263Y-14865588D02*
G75*
G03*
X4889263Y-14765588I-100000J0D01*
G01*
X4889263Y-16465588D02*
G75*
G03*
X4989263Y-16365588I0J100000D01*
G01*
X4589263Y-16465587D02*
G75*
G03*
X4489263Y-16565588I0J-100000D01*
G01*
X10989263Y-13115587D02*
G75*
G03*
X10689263Y-12815588I-300000J0D01*
G01*
D11*
X10501763Y-13028088D02*
X10776763Y-13303088D01*
X10776763Y-13028088D02*
X10501763Y-13303088D01*
X4701763Y-17928088D02*
X4976763Y-18203088D01*
X4976763Y-17928088D02*
X4701763Y-18203088D01*
X10501763Y-17928088D02*
X10776763Y-18203088D01*
X10776763Y-17928088D02*
X10501763Y-18203088D01*
X4701763Y-13028088D02*
X4976763Y-13303088D01*
X4976763Y-13028088D02*
X4701763Y-13303088D01*
D12*
X4770691Y-18886302D02*
X4770691Y-18586302D01*
X4842120Y-18586302D01*
X4884977Y-18600588D01*
X4913548Y-18629159D01*
X4927834Y-18657731D01*
X4942120Y-18714874D01*
X4942120Y-18757731D01*
X4927834Y-18814874D01*
X4913548Y-18843445D01*
X4884977Y-18872016D01*
X4842120Y-18886302D01*
X4770691Y-18886302D01*
X5070691Y-18886302D02*
X5070691Y-18686302D01*
X5070691Y-18743445D02*
X5084977Y-18714874D01*
X5099263Y-18700588D01*
X5127834Y-18686302D01*
X5156405Y-18686302D01*
X5256405Y-18886302D02*
X5256405Y-18686302D01*
X5256405Y-18586302D02*
X5242120Y-18600588D01*
X5256405Y-18614874D01*
X5270691Y-18600588D01*
X5256405Y-18586302D01*
X5256405Y-18614874D01*
X5442120Y-18886302D02*
X5413548Y-18872016D01*
X5399263Y-18843445D01*
X5399263Y-18586302D01*
X5599263Y-18886302D02*
X5570691Y-18872016D01*
X5556405Y-18843445D01*
X5556405Y-18586302D01*
X5942120Y-18886302D02*
X5942120Y-18586302D01*
X6042120Y-18800588D01*
X6142120Y-18586302D01*
X6142120Y-18886302D01*
X6413548Y-18886302D02*
X6413548Y-18729159D01*
X6399263Y-18700588D01*
X6370691Y-18686302D01*
X6313548Y-18686302D01*
X6284977Y-18700588D01*
X6413548Y-18872016D02*
X6384977Y-18886302D01*
X6313548Y-18886302D01*
X6284977Y-18872016D01*
X6270691Y-18843445D01*
X6270691Y-18814874D01*
X6284977Y-18786302D01*
X6313548Y-18772016D01*
X6384977Y-18772016D01*
X6413548Y-18757731D01*
X6556405Y-18686302D02*
X6556405Y-18986302D01*
X6556405Y-18700588D02*
X6584977Y-18686302D01*
X6642120Y-18686302D01*
X6670691Y-18700588D01*
X6684977Y-18714874D01*
X6699263Y-18743445D01*
X6699263Y-18829159D01*
X6684977Y-18857731D01*
X6670691Y-18872016D01*
X6642120Y-18886302D01*
X6584977Y-18886302D01*
X6556405Y-18872016D01*
X6827834Y-18857731D02*
X6842120Y-18872016D01*
X6827834Y-18886302D01*
X6813548Y-18872016D01*
X6827834Y-18857731D01*
X6827834Y-18886302D01*
X6827834Y-18700588D02*
X6842120Y-18714874D01*
X6827834Y-18729159D01*
X6813548Y-18714874D01*
X6827834Y-18700588D01*
X6827834Y-18729159D01*
X4209263Y-19243088D02*
X4484263Y-19518088D01*
X4484263Y-19243088D02*
X4209263Y-19518088D01*
X4756405Y-19244874D02*
X4770691Y-19230588D01*
X4799263Y-19216302D01*
X4870691Y-19216302D01*
X4899263Y-19230588D01*
X4913548Y-19244874D01*
X4927834Y-19273445D01*
X4927834Y-19302016D01*
X4913548Y-19344874D01*
X4742120Y-19516302D01*
X4927834Y-19516302D01*
X5056405Y-19487731D02*
X5070691Y-19502016D01*
X5056405Y-19516302D01*
X5042120Y-19502016D01*
X5056405Y-19487731D01*
X5056405Y-19516302D01*
X5170691Y-19216302D02*
X5370691Y-19216302D01*
X5242120Y-19516302D01*
X5627834Y-19216302D02*
X5484977Y-19216302D01*
X5470691Y-19359159D01*
X5484977Y-19344874D01*
X5513548Y-19330588D01*
X5584977Y-19330588D01*
X5613548Y-19344874D01*
X5627834Y-19359159D01*
X5642120Y-19387731D01*
X5642120Y-19459159D01*
X5627834Y-19487731D01*
X5613548Y-19502016D01*
X5584977Y-19516302D01*
X5513548Y-19516302D01*
X5484977Y-19502016D01*
X5470691Y-19487731D01*
X5770691Y-19516302D02*
X5770691Y-19316302D01*
X5770691Y-19344874D02*
X5784977Y-19330588D01*
X5813548Y-19316302D01*
X5856405Y-19316302D01*
X5884977Y-19330588D01*
X5899263Y-19359159D01*
X5899263Y-19516302D01*
X5899263Y-19359159D02*
X5913548Y-19330588D01*
X5942120Y-19316302D01*
X5984977Y-19316302D01*
X6013548Y-19330588D01*
X6027834Y-19359159D01*
X6027834Y-19516302D01*
X6170691Y-19516302D02*
X6170691Y-19316302D01*
X6170691Y-19344874D02*
X6184977Y-19330588D01*
X6213548Y-19316302D01*
X6256405Y-19316302D01*
X6284977Y-19330588D01*
X6299263Y-19359159D01*
X6299263Y-19516302D01*
X6299263Y-19359159D02*
X6313548Y-19330588D01*
X6342120Y-19316302D01*
X6384977Y-19316302D01*
X6413548Y-19330588D01*
X6427834Y-19359159D01*
X6427834Y-19516302D01*
X7013548Y-19202016D02*
X6756405Y-19587731D01*
X7399263Y-19216302D02*
X7427834Y-19216302D01*
X7456405Y-19230588D01*
X7470691Y-19244874D01*
X7484977Y-19273445D01*
X7499263Y-19330588D01*
X7499263Y-19402016D01*
X7484977Y-19459159D01*
X7470691Y-19487731D01*
X7456405Y-19502016D01*
X7427834Y-19516302D01*
X7399263Y-19516302D01*
X7370691Y-19502016D01*
X7356405Y-19487731D01*
X7342120Y-19459159D01*
X7327834Y-19402016D01*
X7327834Y-19330588D01*
X7342120Y-19273445D01*
X7356405Y-19244874D01*
X7370691Y-19230588D01*
X7399263Y-19216302D01*
X7627834Y-19487731D02*
X7642120Y-19502016D01*
X7627834Y-19516302D01*
X7613548Y-19502016D01*
X7627834Y-19487731D01*
X7627834Y-19516302D01*
X7927834Y-19516302D02*
X7756405Y-19516302D01*
X7842120Y-19516302D02*
X7842120Y-19216302D01*
X7813548Y-19259159D01*
X7784977Y-19287731D01*
X7756405Y-19302016D01*
X8113548Y-19216302D02*
X8142120Y-19216302D01*
X8170691Y-19230588D01*
X8184977Y-19244874D01*
X8199263Y-19273445D01*
X8213548Y-19330588D01*
X8213548Y-19402016D01*
X8199263Y-19459159D01*
X8184977Y-19487731D01*
X8170691Y-19502016D01*
X8142120Y-19516302D01*
X8113548Y-19516302D01*
X8084977Y-19502016D01*
X8070691Y-19487731D01*
X8056405Y-19459159D01*
X8042120Y-19402016D01*
X8042120Y-19330588D01*
X8056405Y-19273445D01*
X8070691Y-19244874D01*
X8084977Y-19230588D01*
X8113548Y-19216302D01*
X8384977Y-19344874D02*
X8356405Y-19330588D01*
X8342120Y-19316302D01*
X8327834Y-19287731D01*
X8327834Y-19273445D01*
X8342120Y-19244874D01*
X8356405Y-19230588D01*
X8384977Y-19216302D01*
X8442120Y-19216302D01*
X8470691Y-19230588D01*
X8484977Y-19244874D01*
X8499263Y-19273445D01*
X8499263Y-19287731D01*
X8484977Y-19316302D01*
X8470691Y-19330588D01*
X8442120Y-19344874D01*
X8384977Y-19344874D01*
X8356405Y-19359159D01*
X8342120Y-19373445D01*
X8327834Y-19402016D01*
X8327834Y-19459159D01*
X8342120Y-19487731D01*
X8356405Y-19502016D01*
X8384977Y-19516302D01*
X8442120Y-19516302D01*
X8470691Y-19502016D01*
X8484977Y-19487731D01*
X8499263Y-19459159D01*
X8499263Y-19402016D01*
X8484977Y-19373445D01*
X8470691Y-19359159D01*
X8442120Y-19344874D01*
X8613548Y-19216302D02*
X8613548Y-19273445D01*
X8727834Y-19216302D02*
X8727834Y-19273445D01*
X9170691Y-19630588D02*
X9156405Y-19616302D01*
X9127834Y-19573445D01*
X9113548Y-19544874D01*
X9099263Y-19502016D01*
X9084977Y-19430588D01*
X9084977Y-19373445D01*
X9099263Y-19302016D01*
X9113548Y-19259159D01*
X9127834Y-19230588D01*
X9156405Y-19187731D01*
X9170691Y-19173445D01*
X9413548Y-19316302D02*
X9413548Y-19516302D01*
X9342120Y-19202016D02*
X9270691Y-19416302D01*
X9456405Y-19416302D01*
X9799263Y-19516302D02*
X9799263Y-19216302D01*
X9927834Y-19516302D02*
X9927834Y-19359159D01*
X9913548Y-19330588D01*
X9884977Y-19316302D01*
X9842120Y-19316302D01*
X9813548Y-19330588D01*
X9799263Y-19344874D01*
X10113548Y-19516302D02*
X10084977Y-19502016D01*
X10070691Y-19487731D01*
X10056405Y-19459159D01*
X10056405Y-19373445D01*
X10070691Y-19344874D01*
X10084977Y-19330588D01*
X10113548Y-19316302D01*
X10156405Y-19316302D01*
X10184977Y-19330588D01*
X10199263Y-19344874D01*
X10213548Y-19373445D01*
X10213548Y-19459159D01*
X10199263Y-19487731D01*
X10184977Y-19502016D01*
X10156405Y-19516302D01*
X10113548Y-19516302D01*
X10384977Y-19516302D02*
X10356405Y-19502016D01*
X10342120Y-19473445D01*
X10342120Y-19216302D01*
X10613548Y-19502016D02*
X10584977Y-19516302D01*
X10527834Y-19516302D01*
X10499263Y-19502016D01*
X10484977Y-19473445D01*
X10484977Y-19359159D01*
X10499263Y-19330588D01*
X10527834Y-19316302D01*
X10584977Y-19316302D01*
X10613548Y-19330588D01*
X10627834Y-19359159D01*
X10627834Y-19387731D01*
X10484977Y-19416302D01*
X10742120Y-19502016D02*
X10770691Y-19516302D01*
X10827834Y-19516302D01*
X10856405Y-19502016D01*
X10870691Y-19473445D01*
X10870691Y-19459159D01*
X10856405Y-19430588D01*
X10827834Y-19416302D01*
X10784977Y-19416302D01*
X10756405Y-19402016D01*
X10742120Y-19373445D01*
X10742120Y-19359159D01*
X10756405Y-19330588D01*
X10784977Y-19316302D01*
X10827834Y-19316302D01*
X10856405Y-19330588D01*
X10970691Y-19630588D02*
X10984977Y-19616302D01*
X11013548Y-19573445D01*
X11027834Y-19544874D01*
X11042120Y-19502016D01*
X11056405Y-19430588D01*
X11056405Y-19373445D01*
X11042120Y-19302016D01*
X11027834Y-19259159D01*
X11013548Y-19230588D01*
X10984977Y-19187731D01*
X10970691Y-19173445D01*
X11513548Y-19630588D02*
X11499263Y-19616302D01*
X11470691Y-19573445D01*
X11456405Y-19544874D01*
X11442120Y-19502016D01*
X11427834Y-19430588D01*
X11427834Y-19373445D01*
X11442120Y-19302016D01*
X11456405Y-19259159D01*
X11470691Y-19230588D01*
X11499263Y-19187731D01*
X11513548Y-19173445D01*
X11627834Y-19316302D02*
X11627834Y-19516302D01*
X11627834Y-19344874D02*
X11642120Y-19330588D01*
X11670691Y-19316302D01*
X11713548Y-19316302D01*
X11742120Y-19330588D01*
X11756405Y-19359159D01*
X11756405Y-19516302D01*
X11942120Y-19516302D02*
X11913548Y-19502016D01*
X11899263Y-19487731D01*
X11884977Y-19459159D01*
X11884977Y-19373445D01*
X11899263Y-19344874D01*
X11913548Y-19330588D01*
X11942120Y-19316302D01*
X11984977Y-19316302D01*
X12013548Y-19330588D01*
X12027834Y-19344874D01*
X12042120Y-19373445D01*
X12042120Y-19459159D01*
X12027834Y-19487731D01*
X12013548Y-19502016D01*
X11984977Y-19516302D01*
X11942120Y-19516302D01*
X12127834Y-19316302D02*
X12242120Y-19316302D01*
X12170691Y-19216302D02*
X12170691Y-19473445D01*
X12184977Y-19502016D01*
X12213548Y-19516302D01*
X12242120Y-19516302D01*
X12570691Y-19316302D02*
X12570691Y-19616302D01*
X12570691Y-19330588D02*
X12599263Y-19316302D01*
X12656405Y-19316302D01*
X12684977Y-19330588D01*
X12699263Y-19344874D01*
X12713548Y-19373445D01*
X12713548Y-19459159D01*
X12699263Y-19487731D01*
X12684977Y-19502016D01*
X12656405Y-19516302D01*
X12599263Y-19516302D01*
X12570691Y-19502016D01*
X12884977Y-19516302D02*
X12856405Y-19502016D01*
X12842120Y-19473445D01*
X12842120Y-19216302D01*
X13127834Y-19516302D02*
X13127834Y-19359159D01*
X13113548Y-19330588D01*
X13084977Y-19316302D01*
X13027834Y-19316302D01*
X12999263Y-19330588D01*
X13127834Y-19502016D02*
X13099263Y-19516302D01*
X13027834Y-19516302D01*
X12999263Y-19502016D01*
X12984977Y-19473445D01*
X12984977Y-19444874D01*
X12999263Y-19416302D01*
X13027834Y-19402016D01*
X13099263Y-19402016D01*
X13127834Y-19387731D01*
X13227834Y-19316302D02*
X13342120Y-19316302D01*
X13270691Y-19216302D02*
X13270691Y-19473445D01*
X13284977Y-19502016D01*
X13313548Y-19516302D01*
X13342120Y-19516302D01*
X13556405Y-19502016D02*
X13527834Y-19516302D01*
X13470691Y-19516302D01*
X13442120Y-19502016D01*
X13427834Y-19473445D01*
X13427834Y-19359159D01*
X13442120Y-19330588D01*
X13470691Y-19316302D01*
X13527834Y-19316302D01*
X13556405Y-19330588D01*
X13570691Y-19359159D01*
X13570691Y-19387731D01*
X13427834Y-19416302D01*
X13827834Y-19516302D02*
X13827834Y-19216302D01*
X13827834Y-19502016D02*
X13799263Y-19516302D01*
X13742120Y-19516302D01*
X13713548Y-19502016D01*
X13699263Y-19487731D01*
X13684977Y-19459159D01*
X13684977Y-19373445D01*
X13699263Y-19344874D01*
X13713548Y-19330588D01*
X13742120Y-19316302D01*
X13799263Y-19316302D01*
X13827834Y-19330588D01*
X13942120Y-19630588D02*
X13956405Y-19616302D01*
X13984977Y-19573445D01*
X13999263Y-19544874D01*
X14013548Y-19502016D01*
X14027834Y-19430588D01*
X14027834Y-19373445D01*
X14013548Y-19302016D01*
X13999263Y-19259159D01*
X13984977Y-19230588D01*
X13956405Y-19187731D01*
X13942120Y-19173445D01*
M02*
