%TF.GenerationSoftware,KiCad,Pcbnew,5.1.6*%
%TF.CreationDate,2020-07-11T21:42:10+02:00*%
%TF.ProjectId,IDEHat,49444548-6174-42e6-9b69-6361645f7063,rev?*%
%TF.SameCoordinates,Original*%
%TF.FileFunction,Soldermask,Bot*%
%TF.FilePolarity,Negative*%
%FSLAX46Y46*%
G04 Gerber Fmt 4.6, Leading zero omitted, Abs format (unit mm)*
G04 Created by KiCad (PCBNEW 5.1.6) date 2020-07-11 21:42:10*
%MOMM*%
%LPD*%
G01*
G04 APERTURE LIST*
%ADD10C,6.200000*%
%ADD11C,1.800000*%
%ADD12R,1.800000X1.800000*%
%ADD13O,1.800000X1.800000*%
G04 APERTURE END LIST*
D10*
%TO.C,*%
X106392628Y-180655875D03*
%TD*%
%TO.C,*%
X48392628Y-131655876D03*
%TD*%
%TO.C,*%
X48392627Y-180655877D03*
%TD*%
%TO.C,*%
X106392628Y-131655876D03*
%TD*%
D11*
%TO.C,J2*%
X102494241Y-171047564D03*
X99954241Y-171047564D03*
X97414241Y-171047564D03*
X94874241Y-171047564D03*
X92334241Y-171047564D03*
X89794241Y-171047564D03*
X87254241Y-171047564D03*
X84714241Y-171047564D03*
X82174241Y-171047564D03*
X79634241Y-171047564D03*
X77094241Y-171047564D03*
X74554241Y-171047564D03*
X72014241Y-171047564D03*
X69474241Y-171047564D03*
X66934241Y-171047564D03*
X64394241Y-171047564D03*
X61854241Y-171047564D03*
X59314241Y-171047564D03*
X56774241Y-171047564D03*
X54234241Y-171047564D03*
X102494241Y-173587564D03*
X99954241Y-173587564D03*
X97414241Y-173587564D03*
X94874241Y-173587564D03*
X92334241Y-173587564D03*
X89794241Y-173587564D03*
X87254241Y-173587564D03*
X84714241Y-173587564D03*
X82174241Y-173587564D03*
X79634241Y-173587564D03*
X77094241Y-173587564D03*
X74554241Y-173587564D03*
X72014241Y-173587564D03*
X69474241Y-173587564D03*
X66934241Y-173587564D03*
X64394241Y-173587564D03*
X61854241Y-173587564D03*
X59314241Y-173587564D03*
X56774241Y-173587564D03*
G36*
G01*
X54869535Y-174487564D02*
X53598947Y-174487564D01*
G75*
G02*
X53334241Y-174222858I0J264706D01*
G01*
X53334241Y-172952270D01*
G75*
G02*
X53598947Y-172687564I264706J0D01*
G01*
X54869535Y-172687564D01*
G75*
G02*
X55134241Y-172952270I0J-264706D01*
G01*
X55134241Y-174222858D01*
G75*
G02*
X54869535Y-174487564I-264706J0D01*
G01*
G37*
%TD*%
D12*
%TO.C,J1*%
X53245628Y-132969876D03*
D13*
X53245628Y-130429876D03*
X55785628Y-132969876D03*
X55785628Y-130429876D03*
X58325628Y-132969876D03*
X58325628Y-130429876D03*
X60865628Y-132969876D03*
X60865628Y-130429876D03*
X63405628Y-132969876D03*
X63405628Y-130429876D03*
X65945628Y-132969876D03*
X65945628Y-130429876D03*
X68485628Y-132969876D03*
X68485628Y-130429876D03*
X71025628Y-132969876D03*
X71025628Y-130429876D03*
X73565628Y-132969876D03*
X73565628Y-130429876D03*
X76105628Y-132969876D03*
X76105628Y-130429876D03*
X78645628Y-132969876D03*
X78645628Y-130429876D03*
X81185628Y-132969876D03*
X81185628Y-130429876D03*
X83725628Y-132969876D03*
X83725628Y-130429876D03*
X86265628Y-132969876D03*
X86265628Y-130429876D03*
X88805628Y-132969876D03*
X88805628Y-130429876D03*
X91345628Y-132969876D03*
X91345628Y-130429876D03*
X93885628Y-132969876D03*
X93885628Y-130429876D03*
X96425628Y-132969876D03*
X96425628Y-130429876D03*
X98965628Y-132969876D03*
X98965628Y-130429876D03*
X101505628Y-132969876D03*
X101505628Y-130429876D03*
%TD*%
M02*
