%TF.GenerationSoftware,KiCad,Pcbnew,5.1.6*%
%TF.CreationDate,2020-07-11T21:42:10+02:00*%
%TF.ProjectId,IDEHat,49444548-6174-42e6-9b69-6361645f7063,rev?*%
%TF.SameCoordinates,Original*%
%TF.FileFunction,Paste,Top*%
%TF.FilePolarity,Positive*%
%FSLAX46Y46*%
G04 Gerber Fmt 4.6, Leading zero omitted, Abs format (unit mm)*
G04 Created by KiCad (PCBNEW 5.1.6) date 2020-07-11 21:42:10*
%MOMM*%
%LPD*%
G01*
G04 APERTURE LIST*
G04 APERTURE END LIST*
%TO.C,U2*%
G36*
G01*
X68460627Y-144424877D02*
X68660627Y-144424877D01*
G75*
G02*
X68760627Y-144524877I0J-100000D01*
G01*
X68760627Y-145799877D01*
G75*
G02*
X68660627Y-145899877I-100000J0D01*
G01*
X68460627Y-145899877D01*
G75*
G02*
X68360627Y-145799877I0J100000D01*
G01*
X68360627Y-144524877D01*
G75*
G02*
X68460627Y-144424877I100000J0D01*
G01*
G37*
G36*
G01*
X67810627Y-144424877D02*
X68010627Y-144424877D01*
G75*
G02*
X68110627Y-144524877I0J-100000D01*
G01*
X68110627Y-145799877D01*
G75*
G02*
X68010627Y-145899877I-100000J0D01*
G01*
X67810627Y-145899877D01*
G75*
G02*
X67710627Y-145799877I0J100000D01*
G01*
X67710627Y-144524877D01*
G75*
G02*
X67810627Y-144424877I100000J0D01*
G01*
G37*
G36*
G01*
X67160627Y-144424877D02*
X67360627Y-144424877D01*
G75*
G02*
X67460627Y-144524877I0J-100000D01*
G01*
X67460627Y-145799877D01*
G75*
G02*
X67360627Y-145899877I-100000J0D01*
G01*
X67160627Y-145899877D01*
G75*
G02*
X67060627Y-145799877I0J100000D01*
G01*
X67060627Y-144524877D01*
G75*
G02*
X67160627Y-144424877I100000J0D01*
G01*
G37*
G36*
G01*
X66510627Y-144424877D02*
X66710627Y-144424877D01*
G75*
G02*
X66810627Y-144524877I0J-100000D01*
G01*
X66810627Y-145799877D01*
G75*
G02*
X66710627Y-145899877I-100000J0D01*
G01*
X66510627Y-145899877D01*
G75*
G02*
X66410627Y-145799877I0J100000D01*
G01*
X66410627Y-144524877D01*
G75*
G02*
X66510627Y-144424877I100000J0D01*
G01*
G37*
G36*
G01*
X65860627Y-144424877D02*
X66060627Y-144424877D01*
G75*
G02*
X66160627Y-144524877I0J-100000D01*
G01*
X66160627Y-145799877D01*
G75*
G02*
X66060627Y-145899877I-100000J0D01*
G01*
X65860627Y-145899877D01*
G75*
G02*
X65760627Y-145799877I0J100000D01*
G01*
X65760627Y-144524877D01*
G75*
G02*
X65860627Y-144424877I100000J0D01*
G01*
G37*
G36*
G01*
X65210627Y-144424877D02*
X65410627Y-144424877D01*
G75*
G02*
X65510627Y-144524877I0J-100000D01*
G01*
X65510627Y-145799877D01*
G75*
G02*
X65410627Y-145899877I-100000J0D01*
G01*
X65210627Y-145899877D01*
G75*
G02*
X65110627Y-145799877I0J100000D01*
G01*
X65110627Y-144524877D01*
G75*
G02*
X65210627Y-144424877I100000J0D01*
G01*
G37*
G36*
G01*
X64560627Y-144424877D02*
X64760627Y-144424877D01*
G75*
G02*
X64860627Y-144524877I0J-100000D01*
G01*
X64860627Y-145799877D01*
G75*
G02*
X64760627Y-145899877I-100000J0D01*
G01*
X64560627Y-145899877D01*
G75*
G02*
X64460627Y-145799877I0J100000D01*
G01*
X64460627Y-144524877D01*
G75*
G02*
X64560627Y-144424877I100000J0D01*
G01*
G37*
G36*
G01*
X63910627Y-144424877D02*
X64110627Y-144424877D01*
G75*
G02*
X64210627Y-144524877I0J-100000D01*
G01*
X64210627Y-145799877D01*
G75*
G02*
X64110627Y-145899877I-100000J0D01*
G01*
X63910627Y-145899877D01*
G75*
G02*
X63810627Y-145799877I0J100000D01*
G01*
X63810627Y-144524877D01*
G75*
G02*
X63910627Y-144424877I100000J0D01*
G01*
G37*
G36*
G01*
X63260627Y-144424877D02*
X63460627Y-144424877D01*
G75*
G02*
X63560627Y-144524877I0J-100000D01*
G01*
X63560627Y-145799877D01*
G75*
G02*
X63460627Y-145899877I-100000J0D01*
G01*
X63260627Y-145899877D01*
G75*
G02*
X63160627Y-145799877I0J100000D01*
G01*
X63160627Y-144524877D01*
G75*
G02*
X63260627Y-144424877I100000J0D01*
G01*
G37*
G36*
G01*
X62610627Y-144424877D02*
X62810627Y-144424877D01*
G75*
G02*
X62910627Y-144524877I0J-100000D01*
G01*
X62910627Y-145799877D01*
G75*
G02*
X62810627Y-145899877I-100000J0D01*
G01*
X62610627Y-145899877D01*
G75*
G02*
X62510627Y-145799877I0J100000D01*
G01*
X62510627Y-144524877D01*
G75*
G02*
X62610627Y-144424877I100000J0D01*
G01*
G37*
G36*
G01*
X62610627Y-138699877D02*
X62810627Y-138699877D01*
G75*
G02*
X62910627Y-138799877I0J-100000D01*
G01*
X62910627Y-140074877D01*
G75*
G02*
X62810627Y-140174877I-100000J0D01*
G01*
X62610627Y-140174877D01*
G75*
G02*
X62510627Y-140074877I0J100000D01*
G01*
X62510627Y-138799877D01*
G75*
G02*
X62610627Y-138699877I100000J0D01*
G01*
G37*
G36*
G01*
X63260627Y-138699877D02*
X63460627Y-138699877D01*
G75*
G02*
X63560627Y-138799877I0J-100000D01*
G01*
X63560627Y-140074877D01*
G75*
G02*
X63460627Y-140174877I-100000J0D01*
G01*
X63260627Y-140174877D01*
G75*
G02*
X63160627Y-140074877I0J100000D01*
G01*
X63160627Y-138799877D01*
G75*
G02*
X63260627Y-138699877I100000J0D01*
G01*
G37*
G36*
G01*
X63910627Y-138699877D02*
X64110627Y-138699877D01*
G75*
G02*
X64210627Y-138799877I0J-100000D01*
G01*
X64210627Y-140074877D01*
G75*
G02*
X64110627Y-140174877I-100000J0D01*
G01*
X63910627Y-140174877D01*
G75*
G02*
X63810627Y-140074877I0J100000D01*
G01*
X63810627Y-138799877D01*
G75*
G02*
X63910627Y-138699877I100000J0D01*
G01*
G37*
G36*
G01*
X64560627Y-138699877D02*
X64760627Y-138699877D01*
G75*
G02*
X64860627Y-138799877I0J-100000D01*
G01*
X64860627Y-140074877D01*
G75*
G02*
X64760627Y-140174877I-100000J0D01*
G01*
X64560627Y-140174877D01*
G75*
G02*
X64460627Y-140074877I0J100000D01*
G01*
X64460627Y-138799877D01*
G75*
G02*
X64560627Y-138699877I100000J0D01*
G01*
G37*
G36*
G01*
X65210627Y-138699877D02*
X65410627Y-138699877D01*
G75*
G02*
X65510627Y-138799877I0J-100000D01*
G01*
X65510627Y-140074877D01*
G75*
G02*
X65410627Y-140174877I-100000J0D01*
G01*
X65210627Y-140174877D01*
G75*
G02*
X65110627Y-140074877I0J100000D01*
G01*
X65110627Y-138799877D01*
G75*
G02*
X65210627Y-138699877I100000J0D01*
G01*
G37*
G36*
G01*
X65860627Y-138699877D02*
X66060627Y-138699877D01*
G75*
G02*
X66160627Y-138799877I0J-100000D01*
G01*
X66160627Y-140074877D01*
G75*
G02*
X66060627Y-140174877I-100000J0D01*
G01*
X65860627Y-140174877D01*
G75*
G02*
X65760627Y-140074877I0J100000D01*
G01*
X65760627Y-138799877D01*
G75*
G02*
X65860627Y-138699877I100000J0D01*
G01*
G37*
G36*
G01*
X66510627Y-138699877D02*
X66710627Y-138699877D01*
G75*
G02*
X66810627Y-138799877I0J-100000D01*
G01*
X66810627Y-140074877D01*
G75*
G02*
X66710627Y-140174877I-100000J0D01*
G01*
X66510627Y-140174877D01*
G75*
G02*
X66410627Y-140074877I0J100000D01*
G01*
X66410627Y-138799877D01*
G75*
G02*
X66510627Y-138699877I100000J0D01*
G01*
G37*
G36*
G01*
X67160627Y-138699877D02*
X67360627Y-138699877D01*
G75*
G02*
X67460627Y-138799877I0J-100000D01*
G01*
X67460627Y-140074877D01*
G75*
G02*
X67360627Y-140174877I-100000J0D01*
G01*
X67160627Y-140174877D01*
G75*
G02*
X67060627Y-140074877I0J100000D01*
G01*
X67060627Y-138799877D01*
G75*
G02*
X67160627Y-138699877I100000J0D01*
G01*
G37*
G36*
G01*
X67810627Y-138699877D02*
X68010627Y-138699877D01*
G75*
G02*
X68110627Y-138799877I0J-100000D01*
G01*
X68110627Y-140074877D01*
G75*
G02*
X68010627Y-140174877I-100000J0D01*
G01*
X67810627Y-140174877D01*
G75*
G02*
X67710627Y-140074877I0J100000D01*
G01*
X67710627Y-138799877D01*
G75*
G02*
X67810627Y-138699877I100000J0D01*
G01*
G37*
G36*
G01*
X68460627Y-138699877D02*
X68660627Y-138699877D01*
G75*
G02*
X68760627Y-138799877I0J-100000D01*
G01*
X68760627Y-140074877D01*
G75*
G02*
X68660627Y-140174877I-100000J0D01*
G01*
X68460627Y-140174877D01*
G75*
G02*
X68360627Y-140074877I0J100000D01*
G01*
X68360627Y-138799877D01*
G75*
G02*
X68460627Y-138699877I100000J0D01*
G01*
G37*
%TD*%
%TO.C,R11*%
G36*
G01*
X80980500Y-149161000D02*
X81325500Y-149161000D01*
G75*
G02*
X81473000Y-149308500I0J-147500D01*
G01*
X81473000Y-149603500D01*
G75*
G02*
X81325500Y-149751000I-147500J0D01*
G01*
X80980500Y-149751000D01*
G75*
G02*
X80833000Y-149603500I0J147500D01*
G01*
X80833000Y-149308500D01*
G75*
G02*
X80980500Y-149161000I147500J0D01*
G01*
G37*
G36*
G01*
X80980500Y-148191000D02*
X81325500Y-148191000D01*
G75*
G02*
X81473000Y-148338500I0J-147500D01*
G01*
X81473000Y-148633500D01*
G75*
G02*
X81325500Y-148781000I-147500J0D01*
G01*
X80980500Y-148781000D01*
G75*
G02*
X80833000Y-148633500I0J147500D01*
G01*
X80833000Y-148338500D01*
G75*
G02*
X80980500Y-148191000I147500J0D01*
G01*
G37*
%TD*%
%TO.C,R10*%
G36*
G01*
X82250500Y-149161000D02*
X82595500Y-149161000D01*
G75*
G02*
X82743000Y-149308500I0J-147500D01*
G01*
X82743000Y-149603500D01*
G75*
G02*
X82595500Y-149751000I-147500J0D01*
G01*
X82250500Y-149751000D01*
G75*
G02*
X82103000Y-149603500I0J147500D01*
G01*
X82103000Y-149308500D01*
G75*
G02*
X82250500Y-149161000I147500J0D01*
G01*
G37*
G36*
G01*
X82250500Y-148191000D02*
X82595500Y-148191000D01*
G75*
G02*
X82743000Y-148338500I0J-147500D01*
G01*
X82743000Y-148633500D01*
G75*
G02*
X82595500Y-148781000I-147500J0D01*
G01*
X82250500Y-148781000D01*
G75*
G02*
X82103000Y-148633500I0J147500D01*
G01*
X82103000Y-148338500D01*
G75*
G02*
X82250500Y-148191000I147500J0D01*
G01*
G37*
%TD*%
%TO.C,R9*%
G36*
G01*
X83520500Y-149161000D02*
X83865500Y-149161000D01*
G75*
G02*
X84013000Y-149308500I0J-147500D01*
G01*
X84013000Y-149603500D01*
G75*
G02*
X83865500Y-149751000I-147500J0D01*
G01*
X83520500Y-149751000D01*
G75*
G02*
X83373000Y-149603500I0J147500D01*
G01*
X83373000Y-149308500D01*
G75*
G02*
X83520500Y-149161000I147500J0D01*
G01*
G37*
G36*
G01*
X83520500Y-148191000D02*
X83865500Y-148191000D01*
G75*
G02*
X84013000Y-148338500I0J-147500D01*
G01*
X84013000Y-148633500D01*
G75*
G02*
X83865500Y-148781000I-147500J0D01*
G01*
X83520500Y-148781000D01*
G75*
G02*
X83373000Y-148633500I0J147500D01*
G01*
X83373000Y-148338500D01*
G75*
G02*
X83520500Y-148191000I147500J0D01*
G01*
G37*
%TD*%
%TO.C,R8*%
G36*
G01*
X84790500Y-149161000D02*
X85135500Y-149161000D01*
G75*
G02*
X85283000Y-149308500I0J-147500D01*
G01*
X85283000Y-149603500D01*
G75*
G02*
X85135500Y-149751000I-147500J0D01*
G01*
X84790500Y-149751000D01*
G75*
G02*
X84643000Y-149603500I0J147500D01*
G01*
X84643000Y-149308500D01*
G75*
G02*
X84790500Y-149161000I147500J0D01*
G01*
G37*
G36*
G01*
X84790500Y-148191000D02*
X85135500Y-148191000D01*
G75*
G02*
X85283000Y-148338500I0J-147500D01*
G01*
X85283000Y-148633500D01*
G75*
G02*
X85135500Y-148781000I-147500J0D01*
G01*
X84790500Y-148781000D01*
G75*
G02*
X84643000Y-148633500I0J147500D01*
G01*
X84643000Y-148338500D01*
G75*
G02*
X84790500Y-148191000I147500J0D01*
G01*
G37*
%TD*%
%TO.C,R7*%
G36*
G01*
X86060500Y-149161000D02*
X86405500Y-149161000D01*
G75*
G02*
X86553000Y-149308500I0J-147500D01*
G01*
X86553000Y-149603500D01*
G75*
G02*
X86405500Y-149751000I-147500J0D01*
G01*
X86060500Y-149751000D01*
G75*
G02*
X85913000Y-149603500I0J147500D01*
G01*
X85913000Y-149308500D01*
G75*
G02*
X86060500Y-149161000I147500J0D01*
G01*
G37*
G36*
G01*
X86060500Y-148191000D02*
X86405500Y-148191000D01*
G75*
G02*
X86553000Y-148338500I0J-147500D01*
G01*
X86553000Y-148633500D01*
G75*
G02*
X86405500Y-148781000I-147500J0D01*
G01*
X86060500Y-148781000D01*
G75*
G02*
X85913000Y-148633500I0J147500D01*
G01*
X85913000Y-148338500D01*
G75*
G02*
X86060500Y-148191000I147500J0D01*
G01*
G37*
%TD*%
%TO.C,R6*%
G36*
G01*
X87330500Y-149161000D02*
X87675500Y-149161000D01*
G75*
G02*
X87823000Y-149308500I0J-147500D01*
G01*
X87823000Y-149603500D01*
G75*
G02*
X87675500Y-149751000I-147500J0D01*
G01*
X87330500Y-149751000D01*
G75*
G02*
X87183000Y-149603500I0J147500D01*
G01*
X87183000Y-149308500D01*
G75*
G02*
X87330500Y-149161000I147500J0D01*
G01*
G37*
G36*
G01*
X87330500Y-148191000D02*
X87675500Y-148191000D01*
G75*
G02*
X87823000Y-148338500I0J-147500D01*
G01*
X87823000Y-148633500D01*
G75*
G02*
X87675500Y-148781000I-147500J0D01*
G01*
X87330500Y-148781000D01*
G75*
G02*
X87183000Y-148633500I0J147500D01*
G01*
X87183000Y-148338500D01*
G75*
G02*
X87330500Y-148191000I147500J0D01*
G01*
G37*
%TD*%
%TO.C,R5*%
G36*
G01*
X88600500Y-149161000D02*
X88945500Y-149161000D01*
G75*
G02*
X89093000Y-149308500I0J-147500D01*
G01*
X89093000Y-149603500D01*
G75*
G02*
X88945500Y-149751000I-147500J0D01*
G01*
X88600500Y-149751000D01*
G75*
G02*
X88453000Y-149603500I0J147500D01*
G01*
X88453000Y-149308500D01*
G75*
G02*
X88600500Y-149161000I147500J0D01*
G01*
G37*
G36*
G01*
X88600500Y-148191000D02*
X88945500Y-148191000D01*
G75*
G02*
X89093000Y-148338500I0J-147500D01*
G01*
X89093000Y-148633500D01*
G75*
G02*
X88945500Y-148781000I-147500J0D01*
G01*
X88600500Y-148781000D01*
G75*
G02*
X88453000Y-148633500I0J147500D01*
G01*
X88453000Y-148338500D01*
G75*
G02*
X88600500Y-148191000I147500J0D01*
G01*
G37*
%TD*%
%TO.C,R4*%
G36*
G01*
X89870500Y-149161000D02*
X90215500Y-149161000D01*
G75*
G02*
X90363000Y-149308500I0J-147500D01*
G01*
X90363000Y-149603500D01*
G75*
G02*
X90215500Y-149751000I-147500J0D01*
G01*
X89870500Y-149751000D01*
G75*
G02*
X89723000Y-149603500I0J147500D01*
G01*
X89723000Y-149308500D01*
G75*
G02*
X89870500Y-149161000I147500J0D01*
G01*
G37*
G36*
G01*
X89870500Y-148191000D02*
X90215500Y-148191000D01*
G75*
G02*
X90363000Y-148338500I0J-147500D01*
G01*
X90363000Y-148633500D01*
G75*
G02*
X90215500Y-148781000I-147500J0D01*
G01*
X89870500Y-148781000D01*
G75*
G02*
X89723000Y-148633500I0J147500D01*
G01*
X89723000Y-148338500D01*
G75*
G02*
X89870500Y-148191000I147500J0D01*
G01*
G37*
%TD*%
%TO.C,D9*%
G36*
G01*
X78742250Y-145192000D02*
X78229750Y-145192000D01*
G75*
G02*
X78011000Y-144973250I0J218750D01*
G01*
X78011000Y-144535750D01*
G75*
G02*
X78229750Y-144317000I218750J0D01*
G01*
X78742250Y-144317000D01*
G75*
G02*
X78961000Y-144535750I0J-218750D01*
G01*
X78961000Y-144973250D01*
G75*
G02*
X78742250Y-145192000I-218750J0D01*
G01*
G37*
G36*
G01*
X78742250Y-146767000D02*
X78229750Y-146767000D01*
G75*
G02*
X78011000Y-146548250I0J218750D01*
G01*
X78011000Y-146110750D01*
G75*
G02*
X78229750Y-145892000I218750J0D01*
G01*
X78742250Y-145892000D01*
G75*
G02*
X78961000Y-146110750I0J-218750D01*
G01*
X78961000Y-146548250D01*
G75*
G02*
X78742250Y-146767000I-218750J0D01*
G01*
G37*
%TD*%
%TO.C,D8*%
G36*
G01*
X80774250Y-145192000D02*
X80261750Y-145192000D01*
G75*
G02*
X80043000Y-144973250I0J218750D01*
G01*
X80043000Y-144535750D01*
G75*
G02*
X80261750Y-144317000I218750J0D01*
G01*
X80774250Y-144317000D01*
G75*
G02*
X80993000Y-144535750I0J-218750D01*
G01*
X80993000Y-144973250D01*
G75*
G02*
X80774250Y-145192000I-218750J0D01*
G01*
G37*
G36*
G01*
X80774250Y-146767000D02*
X80261750Y-146767000D01*
G75*
G02*
X80043000Y-146548250I0J218750D01*
G01*
X80043000Y-146110750D01*
G75*
G02*
X80261750Y-145892000I218750J0D01*
G01*
X80774250Y-145892000D01*
G75*
G02*
X80993000Y-146110750I0J-218750D01*
G01*
X80993000Y-146548250D01*
G75*
G02*
X80774250Y-146767000I-218750J0D01*
G01*
G37*
%TD*%
%TO.C,D7*%
G36*
G01*
X82806250Y-145192000D02*
X82293750Y-145192000D01*
G75*
G02*
X82075000Y-144973250I0J218750D01*
G01*
X82075000Y-144535750D01*
G75*
G02*
X82293750Y-144317000I218750J0D01*
G01*
X82806250Y-144317000D01*
G75*
G02*
X83025000Y-144535750I0J-218750D01*
G01*
X83025000Y-144973250D01*
G75*
G02*
X82806250Y-145192000I-218750J0D01*
G01*
G37*
G36*
G01*
X82806250Y-146767000D02*
X82293750Y-146767000D01*
G75*
G02*
X82075000Y-146548250I0J218750D01*
G01*
X82075000Y-146110750D01*
G75*
G02*
X82293750Y-145892000I218750J0D01*
G01*
X82806250Y-145892000D01*
G75*
G02*
X83025000Y-146110750I0J-218750D01*
G01*
X83025000Y-146548250D01*
G75*
G02*
X82806250Y-146767000I-218750J0D01*
G01*
G37*
%TD*%
%TO.C,D6*%
G36*
G01*
X84838250Y-145192000D02*
X84325750Y-145192000D01*
G75*
G02*
X84107000Y-144973250I0J218750D01*
G01*
X84107000Y-144535750D01*
G75*
G02*
X84325750Y-144317000I218750J0D01*
G01*
X84838250Y-144317000D01*
G75*
G02*
X85057000Y-144535750I0J-218750D01*
G01*
X85057000Y-144973250D01*
G75*
G02*
X84838250Y-145192000I-218750J0D01*
G01*
G37*
G36*
G01*
X84838250Y-146767000D02*
X84325750Y-146767000D01*
G75*
G02*
X84107000Y-146548250I0J218750D01*
G01*
X84107000Y-146110750D01*
G75*
G02*
X84325750Y-145892000I218750J0D01*
G01*
X84838250Y-145892000D01*
G75*
G02*
X85057000Y-146110750I0J-218750D01*
G01*
X85057000Y-146548250D01*
G75*
G02*
X84838250Y-146767000I-218750J0D01*
G01*
G37*
%TD*%
%TO.C,D5*%
G36*
G01*
X86743250Y-145192000D02*
X86230750Y-145192000D01*
G75*
G02*
X86012000Y-144973250I0J218750D01*
G01*
X86012000Y-144535750D01*
G75*
G02*
X86230750Y-144317000I218750J0D01*
G01*
X86743250Y-144317000D01*
G75*
G02*
X86962000Y-144535750I0J-218750D01*
G01*
X86962000Y-144973250D01*
G75*
G02*
X86743250Y-145192000I-218750J0D01*
G01*
G37*
G36*
G01*
X86743250Y-146767000D02*
X86230750Y-146767000D01*
G75*
G02*
X86012000Y-146548250I0J218750D01*
G01*
X86012000Y-146110750D01*
G75*
G02*
X86230750Y-145892000I218750J0D01*
G01*
X86743250Y-145892000D01*
G75*
G02*
X86962000Y-146110750I0J-218750D01*
G01*
X86962000Y-146548250D01*
G75*
G02*
X86743250Y-146767000I-218750J0D01*
G01*
G37*
%TD*%
%TO.C,D4*%
G36*
G01*
X88648250Y-145192000D02*
X88135750Y-145192000D01*
G75*
G02*
X87917000Y-144973250I0J218750D01*
G01*
X87917000Y-144535750D01*
G75*
G02*
X88135750Y-144317000I218750J0D01*
G01*
X88648250Y-144317000D01*
G75*
G02*
X88867000Y-144535750I0J-218750D01*
G01*
X88867000Y-144973250D01*
G75*
G02*
X88648250Y-145192000I-218750J0D01*
G01*
G37*
G36*
G01*
X88648250Y-146767000D02*
X88135750Y-146767000D01*
G75*
G02*
X87917000Y-146548250I0J218750D01*
G01*
X87917000Y-146110750D01*
G75*
G02*
X88135750Y-145892000I218750J0D01*
G01*
X88648250Y-145892000D01*
G75*
G02*
X88867000Y-146110750I0J-218750D01*
G01*
X88867000Y-146548250D01*
G75*
G02*
X88648250Y-146767000I-218750J0D01*
G01*
G37*
%TD*%
%TO.C,D3*%
G36*
G01*
X90680250Y-145192000D02*
X90167750Y-145192000D01*
G75*
G02*
X89949000Y-144973250I0J218750D01*
G01*
X89949000Y-144535750D01*
G75*
G02*
X90167750Y-144317000I218750J0D01*
G01*
X90680250Y-144317000D01*
G75*
G02*
X90899000Y-144535750I0J-218750D01*
G01*
X90899000Y-144973250D01*
G75*
G02*
X90680250Y-145192000I-218750J0D01*
G01*
G37*
G36*
G01*
X90680250Y-146767000D02*
X90167750Y-146767000D01*
G75*
G02*
X89949000Y-146548250I0J218750D01*
G01*
X89949000Y-146110750D01*
G75*
G02*
X90167750Y-145892000I218750J0D01*
G01*
X90680250Y-145892000D01*
G75*
G02*
X90899000Y-146110750I0J-218750D01*
G01*
X90899000Y-146548250D01*
G75*
G02*
X90680250Y-146767000I-218750J0D01*
G01*
G37*
%TD*%
%TO.C,D2*%
G36*
G01*
X92712250Y-145192000D02*
X92199750Y-145192000D01*
G75*
G02*
X91981000Y-144973250I0J218750D01*
G01*
X91981000Y-144535750D01*
G75*
G02*
X92199750Y-144317000I218750J0D01*
G01*
X92712250Y-144317000D01*
G75*
G02*
X92931000Y-144535750I0J-218750D01*
G01*
X92931000Y-144973250D01*
G75*
G02*
X92712250Y-145192000I-218750J0D01*
G01*
G37*
G36*
G01*
X92712250Y-146767000D02*
X92199750Y-146767000D01*
G75*
G02*
X91981000Y-146548250I0J218750D01*
G01*
X91981000Y-146110750D01*
G75*
G02*
X92199750Y-145892000I218750J0D01*
G01*
X92712250Y-145892000D01*
G75*
G02*
X92931000Y-146110750I0J-218750D01*
G01*
X92931000Y-146548250D01*
G75*
G02*
X92712250Y-146767000I-218750J0D01*
G01*
G37*
%TD*%
%TO.C,C5*%
G36*
G01*
X105425628Y-143742378D02*
X105425628Y-143397378D01*
G75*
G02*
X105573128Y-143249878I147500J0D01*
G01*
X105868128Y-143249878D01*
G75*
G02*
X106015628Y-143397378I0J-147500D01*
G01*
X106015628Y-143742378D01*
G75*
G02*
X105868128Y-143889878I-147500J0D01*
G01*
X105573128Y-143889878D01*
G75*
G02*
X105425628Y-143742378I0J147500D01*
G01*
G37*
G36*
G01*
X104455628Y-143742378D02*
X104455628Y-143397378D01*
G75*
G02*
X104603128Y-143249878I147500J0D01*
G01*
X104898128Y-143249878D01*
G75*
G02*
X105045628Y-143397378I0J-147500D01*
G01*
X105045628Y-143742378D01*
G75*
G02*
X104898128Y-143889878I-147500J0D01*
G01*
X104603128Y-143889878D01*
G75*
G02*
X104455628Y-143742378I0J147500D01*
G01*
G37*
%TD*%
%TO.C,C4*%
G36*
G01*
X70153127Y-141599875D02*
X70498127Y-141599875D01*
G75*
G02*
X70645627Y-141747375I0J-147500D01*
G01*
X70645627Y-142042375D01*
G75*
G02*
X70498127Y-142189875I-147500J0D01*
G01*
X70153127Y-142189875D01*
G75*
G02*
X70005627Y-142042375I0J147500D01*
G01*
X70005627Y-141747375D01*
G75*
G02*
X70153127Y-141599875I147500J0D01*
G01*
G37*
G36*
G01*
X70153127Y-140629875D02*
X70498127Y-140629875D01*
G75*
G02*
X70645627Y-140777375I0J-147500D01*
G01*
X70645627Y-141072375D01*
G75*
G02*
X70498127Y-141219875I-147500J0D01*
G01*
X70153127Y-141219875D01*
G75*
G02*
X70005627Y-141072375I0J147500D01*
G01*
X70005627Y-140777375D01*
G75*
G02*
X70153127Y-140629875I147500J0D01*
G01*
G37*
%TD*%
%TO.C,C3*%
G36*
G01*
X96895627Y-149127375D02*
X96895627Y-149472375D01*
G75*
G02*
X96748127Y-149619875I-147500J0D01*
G01*
X96453127Y-149619875D01*
G75*
G02*
X96305627Y-149472375I0J147500D01*
G01*
X96305627Y-149127375D01*
G75*
G02*
X96453127Y-148979875I147500J0D01*
G01*
X96748127Y-148979875D01*
G75*
G02*
X96895627Y-149127375I0J-147500D01*
G01*
G37*
G36*
G01*
X97865627Y-149127375D02*
X97865627Y-149472375D01*
G75*
G02*
X97718127Y-149619875I-147500J0D01*
G01*
X97423127Y-149619875D01*
G75*
G02*
X97275627Y-149472375I0J147500D01*
G01*
X97275627Y-149127375D01*
G75*
G02*
X97423127Y-148979875I147500J0D01*
G01*
X97718127Y-148979875D01*
G75*
G02*
X97865627Y-149127375I0J-147500D01*
G01*
G37*
%TD*%
%TO.C,C2*%
G36*
G01*
X73995628Y-149522376D02*
X73995628Y-149177376D01*
G75*
G02*
X74143128Y-149029876I147500J0D01*
G01*
X74438128Y-149029876D01*
G75*
G02*
X74585628Y-149177376I0J-147500D01*
G01*
X74585628Y-149522376D01*
G75*
G02*
X74438128Y-149669876I-147500J0D01*
G01*
X74143128Y-149669876D01*
G75*
G02*
X73995628Y-149522376I0J147500D01*
G01*
G37*
G36*
G01*
X73025628Y-149522376D02*
X73025628Y-149177376D01*
G75*
G02*
X73173128Y-149029876I147500J0D01*
G01*
X73468128Y-149029876D01*
G75*
G02*
X73615628Y-149177376I0J-147500D01*
G01*
X73615628Y-149522376D01*
G75*
G02*
X73468128Y-149669876I-147500J0D01*
G01*
X73173128Y-149669876D01*
G75*
G02*
X73025628Y-149522376I0J147500D01*
G01*
G37*
%TD*%
%TO.C,C1*%
G36*
G01*
X70488127Y-143159876D02*
X70143127Y-143159876D01*
G75*
G02*
X69995627Y-143012376I0J147500D01*
G01*
X69995627Y-142717376D01*
G75*
G02*
X70143127Y-142569876I147500J0D01*
G01*
X70488127Y-142569876D01*
G75*
G02*
X70635627Y-142717376I0J-147500D01*
G01*
X70635627Y-143012376D01*
G75*
G02*
X70488127Y-143159876I-147500J0D01*
G01*
G37*
G36*
G01*
X70488127Y-144129876D02*
X70143127Y-144129876D01*
G75*
G02*
X69995627Y-143982376I0J147500D01*
G01*
X69995627Y-143687376D01*
G75*
G02*
X70143127Y-143539876I147500J0D01*
G01*
X70488127Y-143539876D01*
G75*
G02*
X70635627Y-143687376I0J-147500D01*
G01*
X70635627Y-143982376D01*
G75*
G02*
X70488127Y-144129876I-147500J0D01*
G01*
G37*
%TD*%
%TO.C,U4*%
G36*
G01*
X81360628Y-152394875D02*
X81060628Y-152394875D01*
G75*
G02*
X80910628Y-152244875I0J150000D01*
G01*
X80910628Y-150494875D01*
G75*
G02*
X81060628Y-150344875I150000J0D01*
G01*
X81360628Y-150344875D01*
G75*
G02*
X81510628Y-150494875I0J-150000D01*
G01*
X81510628Y-152244875D01*
G75*
G02*
X81360628Y-152394875I-150000J0D01*
G01*
G37*
G36*
G01*
X82630628Y-152394875D02*
X82330628Y-152394875D01*
G75*
G02*
X82180628Y-152244875I0J150000D01*
G01*
X82180628Y-150494875D01*
G75*
G02*
X82330628Y-150344875I150000J0D01*
G01*
X82630628Y-150344875D01*
G75*
G02*
X82780628Y-150494875I0J-150000D01*
G01*
X82780628Y-152244875D01*
G75*
G02*
X82630628Y-152394875I-150000J0D01*
G01*
G37*
G36*
G01*
X83900628Y-152394875D02*
X83600628Y-152394875D01*
G75*
G02*
X83450628Y-152244875I0J150000D01*
G01*
X83450628Y-150494875D01*
G75*
G02*
X83600628Y-150344875I150000J0D01*
G01*
X83900628Y-150344875D01*
G75*
G02*
X84050628Y-150494875I0J-150000D01*
G01*
X84050628Y-152244875D01*
G75*
G02*
X83900628Y-152394875I-150000J0D01*
G01*
G37*
G36*
G01*
X85170628Y-152394875D02*
X84870628Y-152394875D01*
G75*
G02*
X84720628Y-152244875I0J150000D01*
G01*
X84720628Y-150494875D01*
G75*
G02*
X84870628Y-150344875I150000J0D01*
G01*
X85170628Y-150344875D01*
G75*
G02*
X85320628Y-150494875I0J-150000D01*
G01*
X85320628Y-152244875D01*
G75*
G02*
X85170628Y-152394875I-150000J0D01*
G01*
G37*
G36*
G01*
X86440628Y-152394875D02*
X86140628Y-152394875D01*
G75*
G02*
X85990628Y-152244875I0J150000D01*
G01*
X85990628Y-150494875D01*
G75*
G02*
X86140628Y-150344875I150000J0D01*
G01*
X86440628Y-150344875D01*
G75*
G02*
X86590628Y-150494875I0J-150000D01*
G01*
X86590628Y-152244875D01*
G75*
G02*
X86440628Y-152394875I-150000J0D01*
G01*
G37*
G36*
G01*
X87710628Y-152394875D02*
X87410628Y-152394875D01*
G75*
G02*
X87260628Y-152244875I0J150000D01*
G01*
X87260628Y-150494875D01*
G75*
G02*
X87410628Y-150344875I150000J0D01*
G01*
X87710628Y-150344875D01*
G75*
G02*
X87860628Y-150494875I0J-150000D01*
G01*
X87860628Y-152244875D01*
G75*
G02*
X87710628Y-152394875I-150000J0D01*
G01*
G37*
G36*
G01*
X88980628Y-152394875D02*
X88680628Y-152394875D01*
G75*
G02*
X88530628Y-152244875I0J150000D01*
G01*
X88530628Y-150494875D01*
G75*
G02*
X88680628Y-150344875I150000J0D01*
G01*
X88980628Y-150344875D01*
G75*
G02*
X89130628Y-150494875I0J-150000D01*
G01*
X89130628Y-152244875D01*
G75*
G02*
X88980628Y-152394875I-150000J0D01*
G01*
G37*
G36*
G01*
X90250628Y-152394875D02*
X89950628Y-152394875D01*
G75*
G02*
X89800628Y-152244875I0J150000D01*
G01*
X89800628Y-150494875D01*
G75*
G02*
X89950628Y-150344875I150000J0D01*
G01*
X90250628Y-150344875D01*
G75*
G02*
X90400628Y-150494875I0J-150000D01*
G01*
X90400628Y-152244875D01*
G75*
G02*
X90250628Y-152394875I-150000J0D01*
G01*
G37*
G36*
G01*
X91520628Y-152394875D02*
X91220628Y-152394875D01*
G75*
G02*
X91070628Y-152244875I0J150000D01*
G01*
X91070628Y-150494875D01*
G75*
G02*
X91220628Y-150344875I150000J0D01*
G01*
X91520628Y-150344875D01*
G75*
G02*
X91670628Y-150494875I0J-150000D01*
G01*
X91670628Y-152244875D01*
G75*
G02*
X91520628Y-152394875I-150000J0D01*
G01*
G37*
G36*
G01*
X92790628Y-152394875D02*
X92490628Y-152394875D01*
G75*
G02*
X92340628Y-152244875I0J150000D01*
G01*
X92340628Y-150494875D01*
G75*
G02*
X92490628Y-150344875I150000J0D01*
G01*
X92790628Y-150344875D01*
G75*
G02*
X92940628Y-150494875I0J-150000D01*
G01*
X92940628Y-152244875D01*
G75*
G02*
X92790628Y-152394875I-150000J0D01*
G01*
G37*
G36*
G01*
X94060628Y-152394875D02*
X93760628Y-152394875D01*
G75*
G02*
X93610628Y-152244875I0J150000D01*
G01*
X93610628Y-150494875D01*
G75*
G02*
X93760628Y-150344875I150000J0D01*
G01*
X94060628Y-150344875D01*
G75*
G02*
X94210628Y-150494875I0J-150000D01*
G01*
X94210628Y-152244875D01*
G75*
G02*
X94060628Y-152394875I-150000J0D01*
G01*
G37*
G36*
G01*
X95330628Y-152394875D02*
X95030628Y-152394875D01*
G75*
G02*
X94880628Y-152244875I0J150000D01*
G01*
X94880628Y-150494875D01*
G75*
G02*
X95030628Y-150344875I150000J0D01*
G01*
X95330628Y-150344875D01*
G75*
G02*
X95480628Y-150494875I0J-150000D01*
G01*
X95480628Y-152244875D01*
G75*
G02*
X95330628Y-152394875I-150000J0D01*
G01*
G37*
G36*
G01*
X96600628Y-152394875D02*
X96300628Y-152394875D01*
G75*
G02*
X96150628Y-152244875I0J150000D01*
G01*
X96150628Y-150494875D01*
G75*
G02*
X96300628Y-150344875I150000J0D01*
G01*
X96600628Y-150344875D01*
G75*
G02*
X96750628Y-150494875I0J-150000D01*
G01*
X96750628Y-152244875D01*
G75*
G02*
X96600628Y-152394875I-150000J0D01*
G01*
G37*
G36*
G01*
X97870628Y-152394875D02*
X97570628Y-152394875D01*
G75*
G02*
X97420628Y-152244875I0J150000D01*
G01*
X97420628Y-150494875D01*
G75*
G02*
X97570628Y-150344875I150000J0D01*
G01*
X97870628Y-150344875D01*
G75*
G02*
X98020628Y-150494875I0J-150000D01*
G01*
X98020628Y-152244875D01*
G75*
G02*
X97870628Y-152394875I-150000J0D01*
G01*
G37*
G36*
G01*
X97870628Y-161694875D02*
X97570628Y-161694875D01*
G75*
G02*
X97420628Y-161544875I0J150000D01*
G01*
X97420628Y-159794875D01*
G75*
G02*
X97570628Y-159644875I150000J0D01*
G01*
X97870628Y-159644875D01*
G75*
G02*
X98020628Y-159794875I0J-150000D01*
G01*
X98020628Y-161544875D01*
G75*
G02*
X97870628Y-161694875I-150000J0D01*
G01*
G37*
G36*
G01*
X96600628Y-161694875D02*
X96300628Y-161694875D01*
G75*
G02*
X96150628Y-161544875I0J150000D01*
G01*
X96150628Y-159794875D01*
G75*
G02*
X96300628Y-159644875I150000J0D01*
G01*
X96600628Y-159644875D01*
G75*
G02*
X96750628Y-159794875I0J-150000D01*
G01*
X96750628Y-161544875D01*
G75*
G02*
X96600628Y-161694875I-150000J0D01*
G01*
G37*
G36*
G01*
X95330628Y-161694875D02*
X95030628Y-161694875D01*
G75*
G02*
X94880628Y-161544875I0J150000D01*
G01*
X94880628Y-159794875D01*
G75*
G02*
X95030628Y-159644875I150000J0D01*
G01*
X95330628Y-159644875D01*
G75*
G02*
X95480628Y-159794875I0J-150000D01*
G01*
X95480628Y-161544875D01*
G75*
G02*
X95330628Y-161694875I-150000J0D01*
G01*
G37*
G36*
G01*
X94060628Y-161694875D02*
X93760628Y-161694875D01*
G75*
G02*
X93610628Y-161544875I0J150000D01*
G01*
X93610628Y-159794875D01*
G75*
G02*
X93760628Y-159644875I150000J0D01*
G01*
X94060628Y-159644875D01*
G75*
G02*
X94210628Y-159794875I0J-150000D01*
G01*
X94210628Y-161544875D01*
G75*
G02*
X94060628Y-161694875I-150000J0D01*
G01*
G37*
G36*
G01*
X92790628Y-161694875D02*
X92490628Y-161694875D01*
G75*
G02*
X92340628Y-161544875I0J150000D01*
G01*
X92340628Y-159794875D01*
G75*
G02*
X92490628Y-159644875I150000J0D01*
G01*
X92790628Y-159644875D01*
G75*
G02*
X92940628Y-159794875I0J-150000D01*
G01*
X92940628Y-161544875D01*
G75*
G02*
X92790628Y-161694875I-150000J0D01*
G01*
G37*
G36*
G01*
X91520628Y-161694875D02*
X91220628Y-161694875D01*
G75*
G02*
X91070628Y-161544875I0J150000D01*
G01*
X91070628Y-159794875D01*
G75*
G02*
X91220628Y-159644875I150000J0D01*
G01*
X91520628Y-159644875D01*
G75*
G02*
X91670628Y-159794875I0J-150000D01*
G01*
X91670628Y-161544875D01*
G75*
G02*
X91520628Y-161694875I-150000J0D01*
G01*
G37*
G36*
G01*
X90250628Y-161694875D02*
X89950628Y-161694875D01*
G75*
G02*
X89800628Y-161544875I0J150000D01*
G01*
X89800628Y-159794875D01*
G75*
G02*
X89950628Y-159644875I150000J0D01*
G01*
X90250628Y-159644875D01*
G75*
G02*
X90400628Y-159794875I0J-150000D01*
G01*
X90400628Y-161544875D01*
G75*
G02*
X90250628Y-161694875I-150000J0D01*
G01*
G37*
G36*
G01*
X88980628Y-161694875D02*
X88680628Y-161694875D01*
G75*
G02*
X88530628Y-161544875I0J150000D01*
G01*
X88530628Y-159794875D01*
G75*
G02*
X88680628Y-159644875I150000J0D01*
G01*
X88980628Y-159644875D01*
G75*
G02*
X89130628Y-159794875I0J-150000D01*
G01*
X89130628Y-161544875D01*
G75*
G02*
X88980628Y-161694875I-150000J0D01*
G01*
G37*
G36*
G01*
X87710628Y-161694875D02*
X87410628Y-161694875D01*
G75*
G02*
X87260628Y-161544875I0J150000D01*
G01*
X87260628Y-159794875D01*
G75*
G02*
X87410628Y-159644875I150000J0D01*
G01*
X87710628Y-159644875D01*
G75*
G02*
X87860628Y-159794875I0J-150000D01*
G01*
X87860628Y-161544875D01*
G75*
G02*
X87710628Y-161694875I-150000J0D01*
G01*
G37*
G36*
G01*
X86440628Y-161694875D02*
X86140628Y-161694875D01*
G75*
G02*
X85990628Y-161544875I0J150000D01*
G01*
X85990628Y-159794875D01*
G75*
G02*
X86140628Y-159644875I150000J0D01*
G01*
X86440628Y-159644875D01*
G75*
G02*
X86590628Y-159794875I0J-150000D01*
G01*
X86590628Y-161544875D01*
G75*
G02*
X86440628Y-161694875I-150000J0D01*
G01*
G37*
G36*
G01*
X85170628Y-161694875D02*
X84870628Y-161694875D01*
G75*
G02*
X84720628Y-161544875I0J150000D01*
G01*
X84720628Y-159794875D01*
G75*
G02*
X84870628Y-159644875I150000J0D01*
G01*
X85170628Y-159644875D01*
G75*
G02*
X85320628Y-159794875I0J-150000D01*
G01*
X85320628Y-161544875D01*
G75*
G02*
X85170628Y-161694875I-150000J0D01*
G01*
G37*
G36*
G01*
X83900628Y-161694875D02*
X83600628Y-161694875D01*
G75*
G02*
X83450628Y-161544875I0J150000D01*
G01*
X83450628Y-159794875D01*
G75*
G02*
X83600628Y-159644875I150000J0D01*
G01*
X83900628Y-159644875D01*
G75*
G02*
X84050628Y-159794875I0J-150000D01*
G01*
X84050628Y-161544875D01*
G75*
G02*
X83900628Y-161694875I-150000J0D01*
G01*
G37*
G36*
G01*
X82630628Y-161694875D02*
X82330628Y-161694875D01*
G75*
G02*
X82180628Y-161544875I0J150000D01*
G01*
X82180628Y-159794875D01*
G75*
G02*
X82330628Y-159644875I150000J0D01*
G01*
X82630628Y-159644875D01*
G75*
G02*
X82780628Y-159794875I0J-150000D01*
G01*
X82780628Y-161544875D01*
G75*
G02*
X82630628Y-161694875I-150000J0D01*
G01*
G37*
G36*
G01*
X81360628Y-161694875D02*
X81060628Y-161694875D01*
G75*
G02*
X80910628Y-161544875I0J150000D01*
G01*
X80910628Y-159794875D01*
G75*
G02*
X81060628Y-159644875I150000J0D01*
G01*
X81360628Y-159644875D01*
G75*
G02*
X81510628Y-159794875I0J-150000D01*
G01*
X81510628Y-161544875D01*
G75*
G02*
X81360628Y-161694875I-150000J0D01*
G01*
G37*
%TD*%
%TO.C,U3*%
G36*
G01*
X58110628Y-152394877D02*
X57810628Y-152394877D01*
G75*
G02*
X57660628Y-152244877I0J150000D01*
G01*
X57660628Y-150494877D01*
G75*
G02*
X57810628Y-150344877I150000J0D01*
G01*
X58110628Y-150344877D01*
G75*
G02*
X58260628Y-150494877I0J-150000D01*
G01*
X58260628Y-152244877D01*
G75*
G02*
X58110628Y-152394877I-150000J0D01*
G01*
G37*
G36*
G01*
X59380628Y-152394877D02*
X59080628Y-152394877D01*
G75*
G02*
X58930628Y-152244877I0J150000D01*
G01*
X58930628Y-150494877D01*
G75*
G02*
X59080628Y-150344877I150000J0D01*
G01*
X59380628Y-150344877D01*
G75*
G02*
X59530628Y-150494877I0J-150000D01*
G01*
X59530628Y-152244877D01*
G75*
G02*
X59380628Y-152394877I-150000J0D01*
G01*
G37*
G36*
G01*
X60650628Y-152394877D02*
X60350628Y-152394877D01*
G75*
G02*
X60200628Y-152244877I0J150000D01*
G01*
X60200628Y-150494877D01*
G75*
G02*
X60350628Y-150344877I150000J0D01*
G01*
X60650628Y-150344877D01*
G75*
G02*
X60800628Y-150494877I0J-150000D01*
G01*
X60800628Y-152244877D01*
G75*
G02*
X60650628Y-152394877I-150000J0D01*
G01*
G37*
G36*
G01*
X61920628Y-152394877D02*
X61620628Y-152394877D01*
G75*
G02*
X61470628Y-152244877I0J150000D01*
G01*
X61470628Y-150494877D01*
G75*
G02*
X61620628Y-150344877I150000J0D01*
G01*
X61920628Y-150344877D01*
G75*
G02*
X62070628Y-150494877I0J-150000D01*
G01*
X62070628Y-152244877D01*
G75*
G02*
X61920628Y-152394877I-150000J0D01*
G01*
G37*
G36*
G01*
X63190628Y-152394877D02*
X62890628Y-152394877D01*
G75*
G02*
X62740628Y-152244877I0J150000D01*
G01*
X62740628Y-150494877D01*
G75*
G02*
X62890628Y-150344877I150000J0D01*
G01*
X63190628Y-150344877D01*
G75*
G02*
X63340628Y-150494877I0J-150000D01*
G01*
X63340628Y-152244877D01*
G75*
G02*
X63190628Y-152394877I-150000J0D01*
G01*
G37*
G36*
G01*
X64460628Y-152394877D02*
X64160628Y-152394877D01*
G75*
G02*
X64010628Y-152244877I0J150000D01*
G01*
X64010628Y-150494877D01*
G75*
G02*
X64160628Y-150344877I150000J0D01*
G01*
X64460628Y-150344877D01*
G75*
G02*
X64610628Y-150494877I0J-150000D01*
G01*
X64610628Y-152244877D01*
G75*
G02*
X64460628Y-152394877I-150000J0D01*
G01*
G37*
G36*
G01*
X65730628Y-152394877D02*
X65430628Y-152394877D01*
G75*
G02*
X65280628Y-152244877I0J150000D01*
G01*
X65280628Y-150494877D01*
G75*
G02*
X65430628Y-150344877I150000J0D01*
G01*
X65730628Y-150344877D01*
G75*
G02*
X65880628Y-150494877I0J-150000D01*
G01*
X65880628Y-152244877D01*
G75*
G02*
X65730628Y-152394877I-150000J0D01*
G01*
G37*
G36*
G01*
X67000628Y-152394877D02*
X66700628Y-152394877D01*
G75*
G02*
X66550628Y-152244877I0J150000D01*
G01*
X66550628Y-150494877D01*
G75*
G02*
X66700628Y-150344877I150000J0D01*
G01*
X67000628Y-150344877D01*
G75*
G02*
X67150628Y-150494877I0J-150000D01*
G01*
X67150628Y-152244877D01*
G75*
G02*
X67000628Y-152394877I-150000J0D01*
G01*
G37*
G36*
G01*
X68270628Y-152394877D02*
X67970628Y-152394877D01*
G75*
G02*
X67820628Y-152244877I0J150000D01*
G01*
X67820628Y-150494877D01*
G75*
G02*
X67970628Y-150344877I150000J0D01*
G01*
X68270628Y-150344877D01*
G75*
G02*
X68420628Y-150494877I0J-150000D01*
G01*
X68420628Y-152244877D01*
G75*
G02*
X68270628Y-152394877I-150000J0D01*
G01*
G37*
G36*
G01*
X69540628Y-152394877D02*
X69240628Y-152394877D01*
G75*
G02*
X69090628Y-152244877I0J150000D01*
G01*
X69090628Y-150494877D01*
G75*
G02*
X69240628Y-150344877I150000J0D01*
G01*
X69540628Y-150344877D01*
G75*
G02*
X69690628Y-150494877I0J-150000D01*
G01*
X69690628Y-152244877D01*
G75*
G02*
X69540628Y-152394877I-150000J0D01*
G01*
G37*
G36*
G01*
X70810628Y-152394877D02*
X70510628Y-152394877D01*
G75*
G02*
X70360628Y-152244877I0J150000D01*
G01*
X70360628Y-150494877D01*
G75*
G02*
X70510628Y-150344877I150000J0D01*
G01*
X70810628Y-150344877D01*
G75*
G02*
X70960628Y-150494877I0J-150000D01*
G01*
X70960628Y-152244877D01*
G75*
G02*
X70810628Y-152394877I-150000J0D01*
G01*
G37*
G36*
G01*
X72080628Y-152394877D02*
X71780628Y-152394877D01*
G75*
G02*
X71630628Y-152244877I0J150000D01*
G01*
X71630628Y-150494877D01*
G75*
G02*
X71780628Y-150344877I150000J0D01*
G01*
X72080628Y-150344877D01*
G75*
G02*
X72230628Y-150494877I0J-150000D01*
G01*
X72230628Y-152244877D01*
G75*
G02*
X72080628Y-152394877I-150000J0D01*
G01*
G37*
G36*
G01*
X73350628Y-152394877D02*
X73050628Y-152394877D01*
G75*
G02*
X72900628Y-152244877I0J150000D01*
G01*
X72900628Y-150494877D01*
G75*
G02*
X73050628Y-150344877I150000J0D01*
G01*
X73350628Y-150344877D01*
G75*
G02*
X73500628Y-150494877I0J-150000D01*
G01*
X73500628Y-152244877D01*
G75*
G02*
X73350628Y-152394877I-150000J0D01*
G01*
G37*
G36*
G01*
X74620628Y-152394877D02*
X74320628Y-152394877D01*
G75*
G02*
X74170628Y-152244877I0J150000D01*
G01*
X74170628Y-150494877D01*
G75*
G02*
X74320628Y-150344877I150000J0D01*
G01*
X74620628Y-150344877D01*
G75*
G02*
X74770628Y-150494877I0J-150000D01*
G01*
X74770628Y-152244877D01*
G75*
G02*
X74620628Y-152394877I-150000J0D01*
G01*
G37*
G36*
G01*
X74620628Y-161694877D02*
X74320628Y-161694877D01*
G75*
G02*
X74170628Y-161544877I0J150000D01*
G01*
X74170628Y-159794877D01*
G75*
G02*
X74320628Y-159644877I150000J0D01*
G01*
X74620628Y-159644877D01*
G75*
G02*
X74770628Y-159794877I0J-150000D01*
G01*
X74770628Y-161544877D01*
G75*
G02*
X74620628Y-161694877I-150000J0D01*
G01*
G37*
G36*
G01*
X73350628Y-161694877D02*
X73050628Y-161694877D01*
G75*
G02*
X72900628Y-161544877I0J150000D01*
G01*
X72900628Y-159794877D01*
G75*
G02*
X73050628Y-159644877I150000J0D01*
G01*
X73350628Y-159644877D01*
G75*
G02*
X73500628Y-159794877I0J-150000D01*
G01*
X73500628Y-161544877D01*
G75*
G02*
X73350628Y-161694877I-150000J0D01*
G01*
G37*
G36*
G01*
X72080628Y-161694877D02*
X71780628Y-161694877D01*
G75*
G02*
X71630628Y-161544877I0J150000D01*
G01*
X71630628Y-159794877D01*
G75*
G02*
X71780628Y-159644877I150000J0D01*
G01*
X72080628Y-159644877D01*
G75*
G02*
X72230628Y-159794877I0J-150000D01*
G01*
X72230628Y-161544877D01*
G75*
G02*
X72080628Y-161694877I-150000J0D01*
G01*
G37*
G36*
G01*
X70810628Y-161694877D02*
X70510628Y-161694877D01*
G75*
G02*
X70360628Y-161544877I0J150000D01*
G01*
X70360628Y-159794877D01*
G75*
G02*
X70510628Y-159644877I150000J0D01*
G01*
X70810628Y-159644877D01*
G75*
G02*
X70960628Y-159794877I0J-150000D01*
G01*
X70960628Y-161544877D01*
G75*
G02*
X70810628Y-161694877I-150000J0D01*
G01*
G37*
G36*
G01*
X69540628Y-161694877D02*
X69240628Y-161694877D01*
G75*
G02*
X69090628Y-161544877I0J150000D01*
G01*
X69090628Y-159794877D01*
G75*
G02*
X69240628Y-159644877I150000J0D01*
G01*
X69540628Y-159644877D01*
G75*
G02*
X69690628Y-159794877I0J-150000D01*
G01*
X69690628Y-161544877D01*
G75*
G02*
X69540628Y-161694877I-150000J0D01*
G01*
G37*
G36*
G01*
X68270628Y-161694877D02*
X67970628Y-161694877D01*
G75*
G02*
X67820628Y-161544877I0J150000D01*
G01*
X67820628Y-159794877D01*
G75*
G02*
X67970628Y-159644877I150000J0D01*
G01*
X68270628Y-159644877D01*
G75*
G02*
X68420628Y-159794877I0J-150000D01*
G01*
X68420628Y-161544877D01*
G75*
G02*
X68270628Y-161694877I-150000J0D01*
G01*
G37*
G36*
G01*
X67000628Y-161694877D02*
X66700628Y-161694877D01*
G75*
G02*
X66550628Y-161544877I0J150000D01*
G01*
X66550628Y-159794877D01*
G75*
G02*
X66700628Y-159644877I150000J0D01*
G01*
X67000628Y-159644877D01*
G75*
G02*
X67150628Y-159794877I0J-150000D01*
G01*
X67150628Y-161544877D01*
G75*
G02*
X67000628Y-161694877I-150000J0D01*
G01*
G37*
G36*
G01*
X65730628Y-161694877D02*
X65430628Y-161694877D01*
G75*
G02*
X65280628Y-161544877I0J150000D01*
G01*
X65280628Y-159794877D01*
G75*
G02*
X65430628Y-159644877I150000J0D01*
G01*
X65730628Y-159644877D01*
G75*
G02*
X65880628Y-159794877I0J-150000D01*
G01*
X65880628Y-161544877D01*
G75*
G02*
X65730628Y-161694877I-150000J0D01*
G01*
G37*
G36*
G01*
X64460628Y-161694877D02*
X64160628Y-161694877D01*
G75*
G02*
X64010628Y-161544877I0J150000D01*
G01*
X64010628Y-159794877D01*
G75*
G02*
X64160628Y-159644877I150000J0D01*
G01*
X64460628Y-159644877D01*
G75*
G02*
X64610628Y-159794877I0J-150000D01*
G01*
X64610628Y-161544877D01*
G75*
G02*
X64460628Y-161694877I-150000J0D01*
G01*
G37*
G36*
G01*
X63190628Y-161694877D02*
X62890628Y-161694877D01*
G75*
G02*
X62740628Y-161544877I0J150000D01*
G01*
X62740628Y-159794877D01*
G75*
G02*
X62890628Y-159644877I150000J0D01*
G01*
X63190628Y-159644877D01*
G75*
G02*
X63340628Y-159794877I0J-150000D01*
G01*
X63340628Y-161544877D01*
G75*
G02*
X63190628Y-161694877I-150000J0D01*
G01*
G37*
G36*
G01*
X61920628Y-161694877D02*
X61620628Y-161694877D01*
G75*
G02*
X61470628Y-161544877I0J150000D01*
G01*
X61470628Y-159794877D01*
G75*
G02*
X61620628Y-159644877I150000J0D01*
G01*
X61920628Y-159644877D01*
G75*
G02*
X62070628Y-159794877I0J-150000D01*
G01*
X62070628Y-161544877D01*
G75*
G02*
X61920628Y-161694877I-150000J0D01*
G01*
G37*
G36*
G01*
X60650628Y-161694877D02*
X60350628Y-161694877D01*
G75*
G02*
X60200628Y-161544877I0J150000D01*
G01*
X60200628Y-159794877D01*
G75*
G02*
X60350628Y-159644877I150000J0D01*
G01*
X60650628Y-159644877D01*
G75*
G02*
X60800628Y-159794877I0J-150000D01*
G01*
X60800628Y-161544877D01*
G75*
G02*
X60650628Y-161694877I-150000J0D01*
G01*
G37*
G36*
G01*
X59380628Y-161694877D02*
X59080628Y-161694877D01*
G75*
G02*
X58930628Y-161544877I0J150000D01*
G01*
X58930628Y-159794877D01*
G75*
G02*
X59080628Y-159644877I150000J0D01*
G01*
X59380628Y-159644877D01*
G75*
G02*
X59530628Y-159794877I0J-150000D01*
G01*
X59530628Y-161544877D01*
G75*
G02*
X59380628Y-161694877I-150000J0D01*
G01*
G37*
G36*
G01*
X58110628Y-161694877D02*
X57810628Y-161694877D01*
G75*
G02*
X57660628Y-161544877I0J150000D01*
G01*
X57660628Y-159794877D01*
G75*
G02*
X57810628Y-159644877I150000J0D01*
G01*
X58110628Y-159644877D01*
G75*
G02*
X58260628Y-159794877I0J-150000D01*
G01*
X58260628Y-161544877D01*
G75*
G02*
X58110628Y-161694877I-150000J0D01*
G01*
G37*
%TD*%
%TO.C,U1*%
G36*
G01*
X103965628Y-141774875D02*
X103965628Y-142074875D01*
G75*
G02*
X103815628Y-142224875I-150000J0D01*
G01*
X102165628Y-142224875D01*
G75*
G02*
X102015628Y-142074875I0J150000D01*
G01*
X102015628Y-141774875D01*
G75*
G02*
X102165628Y-141624875I150000J0D01*
G01*
X103815628Y-141624875D01*
G75*
G02*
X103965628Y-141774875I0J-150000D01*
G01*
G37*
G36*
G01*
X103965628Y-140504875D02*
X103965628Y-140804875D01*
G75*
G02*
X103815628Y-140954875I-150000J0D01*
G01*
X102165628Y-140954875D01*
G75*
G02*
X102015628Y-140804875I0J150000D01*
G01*
X102015628Y-140504875D01*
G75*
G02*
X102165628Y-140354875I150000J0D01*
G01*
X103815628Y-140354875D01*
G75*
G02*
X103965628Y-140504875I0J-150000D01*
G01*
G37*
G36*
G01*
X103965628Y-139234875D02*
X103965628Y-139534875D01*
G75*
G02*
X103815628Y-139684875I-150000J0D01*
G01*
X102165628Y-139684875D01*
G75*
G02*
X102015628Y-139534875I0J150000D01*
G01*
X102015628Y-139234875D01*
G75*
G02*
X102165628Y-139084875I150000J0D01*
G01*
X103815628Y-139084875D01*
G75*
G02*
X103965628Y-139234875I0J-150000D01*
G01*
G37*
G36*
G01*
X103965628Y-137964875D02*
X103965628Y-138264875D01*
G75*
G02*
X103815628Y-138414875I-150000J0D01*
G01*
X102165628Y-138414875D01*
G75*
G02*
X102015628Y-138264875I0J150000D01*
G01*
X102015628Y-137964875D01*
G75*
G02*
X102165628Y-137814875I150000J0D01*
G01*
X103815628Y-137814875D01*
G75*
G02*
X103965628Y-137964875I0J-150000D01*
G01*
G37*
G36*
G01*
X108915628Y-137964875D02*
X108915628Y-138264875D01*
G75*
G02*
X108765628Y-138414875I-150000J0D01*
G01*
X107115628Y-138414875D01*
G75*
G02*
X106965628Y-138264875I0J150000D01*
G01*
X106965628Y-137964875D01*
G75*
G02*
X107115628Y-137814875I150000J0D01*
G01*
X108765628Y-137814875D01*
G75*
G02*
X108915628Y-137964875I0J-150000D01*
G01*
G37*
G36*
G01*
X108915628Y-139234875D02*
X108915628Y-139534875D01*
G75*
G02*
X108765628Y-139684875I-150000J0D01*
G01*
X107115628Y-139684875D01*
G75*
G02*
X106965628Y-139534875I0J150000D01*
G01*
X106965628Y-139234875D01*
G75*
G02*
X107115628Y-139084875I150000J0D01*
G01*
X108765628Y-139084875D01*
G75*
G02*
X108915628Y-139234875I0J-150000D01*
G01*
G37*
G36*
G01*
X108915628Y-140504875D02*
X108915628Y-140804875D01*
G75*
G02*
X108765628Y-140954875I-150000J0D01*
G01*
X107115628Y-140954875D01*
G75*
G02*
X106965628Y-140804875I0J150000D01*
G01*
X106965628Y-140504875D01*
G75*
G02*
X107115628Y-140354875I150000J0D01*
G01*
X108765628Y-140354875D01*
G75*
G02*
X108915628Y-140504875I0J-150000D01*
G01*
G37*
G36*
G01*
X108915628Y-141774875D02*
X108915628Y-142074875D01*
G75*
G02*
X108765628Y-142224875I-150000J0D01*
G01*
X107115628Y-142224875D01*
G75*
G02*
X106965628Y-142074875I0J150000D01*
G01*
X106965628Y-141774875D01*
G75*
G02*
X107115628Y-141624875I150000J0D01*
G01*
X108765628Y-141624875D01*
G75*
G02*
X108915628Y-141774875I0J-150000D01*
G01*
G37*
%TD*%
%TO.C,R3*%
G36*
G01*
X102760627Y-162847377D02*
X102760627Y-163192377D01*
G75*
G02*
X102613127Y-163339877I-147500J0D01*
G01*
X102318127Y-163339877D01*
G75*
G02*
X102170627Y-163192377I0J147500D01*
G01*
X102170627Y-162847377D01*
G75*
G02*
X102318127Y-162699877I147500J0D01*
G01*
X102613127Y-162699877D01*
G75*
G02*
X102760627Y-162847377I0J-147500D01*
G01*
G37*
G36*
G01*
X103730627Y-162847377D02*
X103730627Y-163192377D01*
G75*
G02*
X103583127Y-163339877I-147500J0D01*
G01*
X103288127Y-163339877D01*
G75*
G02*
X103140627Y-163192377I0J147500D01*
G01*
X103140627Y-162847377D01*
G75*
G02*
X103288127Y-162699877I147500J0D01*
G01*
X103583127Y-162699877D01*
G75*
G02*
X103730627Y-162847377I0J-147500D01*
G01*
G37*
%TD*%
%TO.C,R2*%
G36*
G01*
X99170627Y-139192376D02*
X99170627Y-138847376D01*
G75*
G02*
X99318127Y-138699876I147500J0D01*
G01*
X99613127Y-138699876D01*
G75*
G02*
X99760627Y-138847376I0J-147500D01*
G01*
X99760627Y-139192376D01*
G75*
G02*
X99613127Y-139339876I-147500J0D01*
G01*
X99318127Y-139339876D01*
G75*
G02*
X99170627Y-139192376I0J147500D01*
G01*
G37*
G36*
G01*
X98200627Y-139192376D02*
X98200627Y-138847376D01*
G75*
G02*
X98348127Y-138699876I147500J0D01*
G01*
X98643127Y-138699876D01*
G75*
G02*
X98790627Y-138847376I0J-147500D01*
G01*
X98790627Y-139192376D01*
G75*
G02*
X98643127Y-139339876I-147500J0D01*
G01*
X98348127Y-139339876D01*
G75*
G02*
X98200627Y-139192376I0J147500D01*
G01*
G37*
%TD*%
%TO.C,R1*%
G36*
G01*
X99170628Y-138192376D02*
X99170628Y-137847376D01*
G75*
G02*
X99318128Y-137699876I147500J0D01*
G01*
X99613128Y-137699876D01*
G75*
G02*
X99760628Y-137847376I0J-147500D01*
G01*
X99760628Y-138192376D01*
G75*
G02*
X99613128Y-138339876I-147500J0D01*
G01*
X99318128Y-138339876D01*
G75*
G02*
X99170628Y-138192376I0J147500D01*
G01*
G37*
G36*
G01*
X98200628Y-138192376D02*
X98200628Y-137847376D01*
G75*
G02*
X98348128Y-137699876I147500J0D01*
G01*
X98643128Y-137699876D01*
G75*
G02*
X98790628Y-137847376I0J-147500D01*
G01*
X98790628Y-138192376D01*
G75*
G02*
X98643128Y-138339876I-147500J0D01*
G01*
X98348128Y-138339876D01*
G75*
G02*
X98200628Y-138192376I0J147500D01*
G01*
G37*
%TD*%
%TO.C,D1*%
G36*
G01*
X106815629Y-163276125D02*
X106815629Y-162763625D01*
G75*
G02*
X107034379Y-162544875I218750J0D01*
G01*
X107471879Y-162544875D01*
G75*
G02*
X107690629Y-162763625I0J-218750D01*
G01*
X107690629Y-163276125D01*
G75*
G02*
X107471879Y-163494875I-218750J0D01*
G01*
X107034379Y-163494875D01*
G75*
G02*
X106815629Y-163276125I0J218750D01*
G01*
G37*
G36*
G01*
X105240629Y-163276125D02*
X105240629Y-162763625D01*
G75*
G02*
X105459379Y-162544875I218750J0D01*
G01*
X105896879Y-162544875D01*
G75*
G02*
X106115629Y-162763625I0J-218750D01*
G01*
X106115629Y-163276125D01*
G75*
G02*
X105896879Y-163494875I-218750J0D01*
G01*
X105459379Y-163494875D01*
G75*
G02*
X105240629Y-163276125I0J218750D01*
G01*
G37*
%TD*%
M02*
